HIERARCHY
ROOT Hips
{
	OFFSET 0.000000 0.000000 0.000000
	CHANNELS 6 Xposition Yposition Zposition Zrotation Yrotation Xrotation 
	JOINT LHipJoint
	{
		OFFSET 0.000000 0.000000 0.000000
		CHANNELS 3 Zrotation Yrotation Xrotation
		JOINT LeftUpLeg
		{
			OFFSET 1.363060 -1.794630 0.839290
			CHANNELS 3 Zrotation Yrotation Xrotation
			JOINT LeftLeg
			{
				OFFSET 2.448110 -6.726130 0.000000
				CHANNELS 3 Zrotation Yrotation Xrotation
				JOINT LeftFoot
				{
					OFFSET 2.562200 -7.039590 0.000000
					CHANNELS 3 Zrotation Yrotation Xrotation
					JOINT LeftToeBase
					{
						OFFSET 0.157640 -0.433110 2.322550
						CHANNELS 3 Zrotation Yrotation Xrotation
						End Site
						{
							OFFSET 0.000000 0.000000 0.000000
						}
					}
				}
			}
		}
	}
	JOINT RHipJoint
	{
		OFFSET 0.000000 0.000000 0.000000
		CHANNELS 3 Zrotation Yrotation Xrotation
		JOINT RightUpLeg
		{
			OFFSET -1.305520 -1.794630 0.839290
			CHANNELS 3 Zrotation Yrotation Xrotation
			JOINT RightLeg
			{
				OFFSET -2.542530 -6.985550 0.000000
				CHANNELS 3 Zrotation Yrotation Xrotation
				JOINT RightFoot
				{
					OFFSET -2.568260 -7.056230 0.000000
					CHANNELS 3 Zrotation Yrotation Xrotation
					JOINT RightToeBase
					{
						OFFSET -0.164730 -0.452590 2.363150
						CHANNELS 3 Zrotation Yrotation Xrotation
						End Site
						{
							OFFSET 0.000000 0.000000 0.000000
						}
					}
				}
			}
		}
	}
	JOINT LowerBack
	{
		OFFSET 0.000000 0.000000 0.000000
		CHANNELS 3 Zrotation Yrotation Xrotation
		JOINT Spine
		{
			OFFSET 0.028270 2.035590 -0.193380
			CHANNELS 3 Zrotation Yrotation Xrotation
			JOINT Spine1
			{
				OFFSET 0.056720 2.048850 -0.042750
				CHANNELS 3 Zrotation Yrotation Xrotation
				JOINT Neck
				{
					OFFSET 0.000000 0.000000 0.000000
					CHANNELS 3 Zrotation Yrotation Xrotation
					JOINT Neck1
					{
						OFFSET -0.054170 1.746240 0.172020
						CHANNELS 3 Zrotation Yrotation Xrotation
						JOINT Head
						{
							OFFSET 0.104070 1.761360 -0.123970
							CHANNELS 3 Zrotation Yrotation Xrotation
							End Site
							{
								OFFSET 0.000000 0.000000 0.000000
							}
						}
					}
				}
				JOINT LeftShoulder
				{
					OFFSET 0.000000 0.000000 0.000000
					CHANNELS 3 Zrotation Yrotation Xrotation
					JOINT LeftArm
					{
						OFFSET 3.362410 1.200890 -0.311210
						CHANNELS 3 Zrotation Yrotation Xrotation
						JOINT LeftForeArm
						{
							OFFSET 4.983000 -0.000000 -0.000000
							CHANNELS 3 Zrotation Yrotation Xrotation
							JOINT LeftHand
							{
								OFFSET 3.483560 -0.000000 -0.000000
								CHANNELS 3 Zrotation Yrotation Xrotation
								JOINT LeftFingerBase
								{
									OFFSET 0.000000 0.000000 0.000000
									CHANNELS 3 Zrotation Yrotation Xrotation
									JOINT LeftHandIndex1
									{
										OFFSET 0.715260 -0.000000 -0.000000
										CHANNELS 3 Zrotation Yrotation Xrotation
										End Site
										{
											OFFSET 0.000000 0.000000 0.000000
										}
									}
								}
								JOINT LThumb
								{
									OFFSET 0.000000 0.000000 0.000000
									CHANNELS 3 Zrotation Yrotation Xrotation
									End Site
									{
										OFFSET 0.000000 0.000000 0.000000
									}
								}
							}
						}
					}
				}
				JOINT RightShoulder
				{
					OFFSET 0.000000 0.000000 0.000000
					CHANNELS 3 Zrotation Yrotation Xrotation
					JOINT RightArm
					{
						OFFSET -3.136600 1.374050 -0.404650
						CHANNELS 3 Zrotation Yrotation Xrotation
						JOINT RightForeArm
						{
							OFFSET -5.241900 -0.000000 -0.000000
							CHANNELS 3 Zrotation Yrotation Xrotation
							JOINT RightHand
							{
								OFFSET -3.444170 -0.000000 -0.000000
								CHANNELS 3 Zrotation Yrotation Xrotation
								JOINT RightFingerBase
								{
									OFFSET 0.000000 0.000000 0.000000
									CHANNELS 3 Zrotation Yrotation Xrotation
									JOINT RightHandIndex1
									{
										OFFSET -0.622530 -0.000000 -0.000000
										CHANNELS 3 Zrotation Yrotation Xrotation
										End Site
										{
											OFFSET 0.000000 0.000000 0.000000
										}
									}
								}
								JOINT RThumb
								{
									OFFSET 0.000000 0.000000 0.000000
									CHANNELS 3 Zrotation Yrotation Xrotation
									End Site
									{
										OFFSET 0.000000 0.000000 0.000000
									}
								}
							}
						}
					}
				}
			}
		}
	}
}
MOTION
Frames: 7
Frame Time: 0.008333
3.080166 15.984298 -2.022648 173.261971 57.104558 -172.423961 -8.732556 2.628762 2.850657 -26.432082 -5.520119 -14.354493 -3.222226 1.006935 37.312690 1.484760 -1.809515 -29.315057 -0.682801 -0.000000 -0.675400 11.980695 -0.985649 0.331643 -9.762757 -7.874211 -29.961929 -1.151351 -4.632271 67.603129 -2.306351 -11.692029 -12.204250 0.686000 -0.000001 -36.968699 -3.715149 -0.367596 -4.062219 -1.382307 -0.141381 -3.571298 -6.768314 0.096350 -0.921614 8.572852 -11.625928 -7.292832 -3.474962 -0.267486 0.064910 0.000000 0.000000 0.000000 1.313424 11.195051 -2.035438 -77.361543 -15.851723 19.891900 -178.763665 -65.848197 179.802598 24.852159 -22.115570 -5.390237 -0.796544 1.349339 -0.000000 0.000000 0.000000 0.000000 0.000000 0.000000 0.000000 5.649432 -5.787392 -1.714720 80.931917 1.198857 27.346275 -179.085160 71.384855 179.836612 -14.368879 26.862920 -3.649175 0.175501 -1.150921 0.000000 0.000000 0.000000 0.000000 0.000000 0.000000 0.000000 
3.261897 16.030937 -2.097025 173.713734 56.484935 -171.836814 -8.822162 2.646624 2.871899 -25.667272 -5.710086 -13.302332 -3.194230 0.946312 36.423063 1.321120 -2.258212 -28.279219 -0.465101 -0.000000 -2.422600 11.887152 -0.795694 0.532437 -9.677515 -7.126637 -31.036026 -1.086029 -4.542628 66.696963 -2.353461 -11.785885 -12.480519 0.730599 -0.000000 -35.982800 -3.510436 -0.625330 -4.214244 -1.297376 -0.413162 -3.583097 -6.723536 -0.187812 -0.947376 8.590930 -12.300486 -7.221049 -3.412830 -0.264151 0.093711 0.000000 0.000000 0.000000 1.637031 9.933607 -2.116573 -77.999819 -17.624052 21.306435 -178.709098 -66.035727 179.800086 24.364669 -22.289757 -5.333950 -0.794764 1.388456 -0.000000 0.000000 0.000000 0.000000 0.000000 0.000000 0.000000 5.355953 -6.784758 -1.562028 80.153401 -0.300832 26.954079 -179.027880 70.726379 179.831724 -14.821844 26.620579 -3.730072 0.180253 -1.142004 -0.000000 0.000000 0.000000 0.000000 0.000000 0.000000 0.000000 
3.446883 16.091600 -2.177409 174.199283 55.903617 -171.266120 -8.917615 2.679881 2.896826 -24.868634 -5.872641 -12.138082 -3.151052 0.881475 35.317741 1.157958 -2.563008 -26.968301 -0.300800 0.000000 -4.431000 11.772485 -0.610911 0.713818 -9.488616 -6.472232 -31.974813 -0.998662 -4.426006 65.460529 -2.404937 -11.889597 -12.636536 0.750900 -0.000000 -35.286700 -3.258698 -0.910526 -4.358161 -1.197811 -0.716015 -3.593065 -6.655140 -0.504310 -0.957023 8.586287 -12.968937 -7.175273 -3.342874 -0.259948 0.115807 0.000000 0.000000 0.000000 2.041271 8.779045 -2.197228 -78.636851 -19.211656 22.669366 -178.650911 -66.074513 179.799102 23.802013 -22.510495 -5.269932 -0.791104 1.429632 -0.000000 0.000000 0.000000 0.000000 0.000000 0.000000 0.000000 5.002644 -7.760533 -1.425661 79.385768 -1.746143 26.642697 -178.978440 70.043470 179.827876 -15.192542 26.394180 -3.790675 0.184336 -1.134025 -0.000000 0.000000 0.000000 0.000000 0.000000 0.000000 0.000000 
3.635226 16.165339 -2.263589 174.704237 55.365755 -170.726864 -9.016776 2.730505 2.925765 -24.052855 -6.009538 -10.857321 -3.090847 0.815110 33.990231 0.997218 -2.713063 -25.353440 -0.191200 -0.000000 -6.826600 11.638943 -0.432929 0.873380 -9.197843 -5.914813 -32.770096 -0.891945 -4.283540 63.893168 -2.458836 -11.994161 -12.659687 0.742400 -0.000000 -34.903400 -2.971314 -1.222529 -4.490894 -1.085554 -1.048199 -3.602493 -6.561510 -0.851631 -0.956298 8.558408 -13.612764 -7.149220 -3.267724 -0.255134 0.132692 0.000000 0.000000 0.000000 2.521017 7.731253 -2.277783 -79.275654 -20.587508 23.954532 -178.590794 -65.973650 179.799651 23.169430 -22.758338 -5.193488 -0.785178 1.471704 -0.000000 0.000000 0.000000 0.000000 0.000000 0.000000 0.000000 4.601403 -8.697639 -1.306866 78.620753 -3.129448 26.403735 -178.936922 69.351267 179.825044 -15.471665 26.198479 -3.831385 0.187321 -1.127094 0.000000 0.000000 0.000000 0.000000 0.000000 0.000000 0.000000 
3.826972 16.251114 -2.355310 175.220176 54.877046 -170.227160 -9.118874 2.800101 2.958907 -23.230685 -6.121672 -9.460774 -3.012020 0.750523 32.437145 0.838793 -2.717007 -23.396788 -0.127500 0.000000 -9.738500 11.488775 -0.264568 1.009788 -8.806023 -5.453005 -33.414918 -0.768423 -4.116473 61.994146 -2.511299 -12.081648 -12.538295 0.700199 0.000000 -34.837400 -2.656825 -1.558655 -4.610661 -0.962604 -1.406288 -3.611694 -6.443782 -1.226326 -0.946216 8.510004 -14.221019 -7.140425 -3.189336 -0.249865 0.144836 0.000000 0.000000 0.000000 3.061390 6.802903 -2.358181 -79.913899 -21.750158 25.156095 -178.529424 -65.759477 179.801676 22.483312 -23.011066 -5.102314 -0.777139 1.513275 0.000000 0.000000 0.000000 0.000000 0.000000 0.000000 0.000000 4.168091 -9.586536 -1.208475 77.848762 -4.439550 26.230499 -178.903814 68.662558 179.823206 -15.656363 26.043216 -3.853810 0.189027 -1.121261 0.000000 0.000000 0.000000 0.000000 0.000000 0.000000 0.000000 
4.022127 16.347683 -2.452290 175.746814 54.443585 -169.767072 -9.224534 2.889834 2.995867 -22.406165 -6.207744 -7.955038 -2.913353 0.691700 30.662225 0.682141 -2.599492 -21.060768 -0.094300 0.000000 -13.261600 11.324046 -0.110224 1.122707 -8.311371 -5.080334 -33.902675 -0.630070 -3.926152 59.762956 -2.556662 -12.126631 -12.262313 0.619600 -0.000000 -35.078200 -2.321461 -1.913634 -4.716405 -0.830718 -1.784480 -3.622106 -6.302743 -1.622768 -0.932565 8.443379 -14.783982 -7.142091 -3.110100 -0.244407 0.154041 0.000000 0.000000 0.000000 3.653622 5.982268 -2.438685 -80.552414 -22.681324 26.260538 -178.471069 -65.453188 179.804936 21.761305 -23.250627 -4.995915 -0.766933 1.553096 -0.000000 0.000000 0.000000 0.000000 0.000000 0.000000 0.000000 3.716050 -10.418595 -1.131244 77.061572 -5.673786 26.111040 -178.879245 67.985837 179.822308 -15.746068 25.932818 -3.858851 0.189295 -1.116489 0.000000 0.000000 0.000000 0.000000 0.000000 0.000000 0.000000 
4.220616 16.453604 -2.554140 176.290489 54.070674 -169.339391 -9.336406 3.001383 3.035715 -21.575105 -6.261611 -6.354600 -2.792489 0.643985 28.674260 0.526014 -2.393083 -18.281701 -0.074600 -0.000000 -17.769400 11.146362 0.024208 1.213283 -7.709125 -4.783783 -34.228678 -0.478104 -3.713973 57.200370 -2.587820 -12.098976 -11.823644 0.497500 0.000000 -35.606200 -1.967676 -2.280419 -4.808482 -0.691130 -2.175573 -3.635261 -6.139278 -2.033950 -0.920992 8.361069 -15.298282 -7.147640 -3.032042 -0.239002 0.162135 0.000000 0.000000 0.000000 4.289313 5.250388 -2.520003 -81.192003 -23.364828 27.257348 -178.421954 -65.080193 179.809085 21.023229 -23.463754 -4.875891 -0.754496 1.589970 -0.000000 0.000000 0.000000 0.000000 0.000000 0.000000 0.000000 3.257794 -11.191459 -1.074899 76.251593 -6.829095 26.035756 -178.864040 67.332856 179.822328 -15.742528 25.867101 -3.847411 0.188067 -1.112562 0.000000 0.000000 0.000000 0.000000 0.000000 0.000000 0.000000 
